<?xml version="1.0" standalone="no"?><!DOCTYPE svg PUBLIC "-//W3C//DTD SVG 1.1//EN" "http://www.w3.org/Graphics/SVG/1.1/DTD/svg11.dtd"><svg t="1778748516914" class="icon" viewBox="0 0 1024 1024" version="1.1" xmlns="http://www.w3.org/2000/svg" p-id="1971" data-spm-anchor-id="a313x.icontype_histories.0.i1.1c0a3a81fRUKKU" xmlns:xlink="http://www.w3.org/1999/xlink" width="200" height="200"><path d="M568.32 795.9552a14.5408 14.5408 0 0 1-14.5408-14.5408V185.3952l-135.424-32.2048a14.5408 14.5408 0 0 1-0.8192-28.0576l146.3808-44.288a14.5408 14.5408 0 0 1 18.7392 13.9264v686.6432a14.5408 14.5408 0 0 1-14.336 14.5408zM477.44 137.3696l76.1344 18.176v-40.96z" fill="#d4237a" p-id="1972" data-spm-anchor-id="a313x.icontype_histories.0.i0.1c0a3a81fRUKKU" class=""></path><path d="M805.9904 884.5312a14.4896 14.4896 0 0 1-12.3392-22.1696l40.0896-64.512h-588.8l-55.1936 75.008a14.5408 14.5408 0 1 1-23.3472-17.2544l59.6992-80.896a14.5408 14.5408 0 0 1 11.6736-5.888H860.16a14.5408 14.5408 0 0 1 12.3392 22.2208l-53.9136 86.6304a14.4896 14.4896 0 0 1-12.5952 6.8608zM831.0272 736.256H226.2016a14.5408 14.5408 0 0 1-12.288-22.272L552.96 174.6944a14.5408 14.5408 0 1 1 24.6272 15.36l-325.0176 517.12h563.9168a718.6432 718.6432 0 0 0-27.0848-177.2544c-39.168-135.3728-112.64-229.7344-218.88-280.4736a14.5408 14.5408 0 1 1 12.544-26.2144c112.64 53.8112 193.5872 157.3376 234.496 299.4176a711.68 711.68 0 0 1 28.0064 199.68 14.592 14.592 0 0 1-14.5408 13.9264z" fill="#bfbfbf" p-id="1973" data-spm-anchor-id="a313x.icontype_histories.0.i2.1c0a3a81fRUKKU" class=""></path><path d="M825.2416 950.3232c-26.7776 0-51.456-15.36-72.96-32.3584-65.6384 53.9136-115.456 30.1568-157.2864-1.792-27.4944 24.5248-52.0192 33.536-73.9328 33.536-30.3616 0-55.7568-17.152-77.2096-34.3552a95.9488 95.9488 0 0 1-86.1184 31.232 105.1136 105.1136 0 0 1-67.1232-38.8608c-25.6 24.2176-52.6336 35.84-80.64 34.7648-52.0704-2.1504-86.4768-48.4352-87.9104-50.432a14.4896 14.4896 0 0 1 23.3984-17.152c0.3072 0.3584 27.8528 37.0688 65.8432 38.5536 23.9104 0.8704 47.9232-12.3904 71.3728-39.4752a14.5408 14.5408 0 0 1 24.6272 4.5568c5.7856 15.9744 26.9824 35.2256 54.6816 39.3216 18.3296 2.7136 45.1072-0.512 68.352-31.5392A14.3872 14.3872 0 0 1 440.32 880.64a14.5408 14.5408 0 0 1 11.008 3.2256c46.08 37.9904 76.8 58.4704 132.608 2.8672a14.4896 14.4896 0 0 1 19.4048-1.024c42.6496 34.5088 79.9744 56.32 139.008 2.5088a14.5408 14.5408 0 0 1 19.2512-0.3584c29.0816 24.7808 49.152 34.7648 67.1744 33.2288 16.8448-1.3824 34.7648-13.568 54.784-37.3248a14.5408 14.5408 0 1 1 22.2208 18.7392c-25.6 30.3616-49.3056 45.4656-74.6496 47.5648-2.048 0.1536-3.9424 0.256-5.888 0.256z" fill="#1296db" p-id="1974" data-spm-anchor-id="a313x.icontype_histories.0.i3.1c0a3a81fRUKKU" class=""></path></svg>